HIERARCHY
ROOT pelvis
{
	OFFSET 0.000000 0.000000 0.000000
	CHANNELS 6 Xposition Yposition Zposition Zrotation Xrotation Yrotation
	JOINT lfemur
	{
		OFFSET 11.446000 0.000000 0.000000
		CHANNELS 3 Zrotation Xrotation Yrotation
		JOINT ltibia
		{
			OFFSET 0.000000 -42.030400 0.000000
			CHANNELS 3 Zrotation Xrotation Yrotation
			JOINT lfoot
			{
				OFFSET 0.000000 -39.930200 0.000000
				CHANNELS 3 Zrotation Xrotation Yrotation
				JOINT ltoes
				{
					OFFSET 0.000000 0.000000 11.775800
					CHANNELS 3 Zrotation Xrotation Yrotation
					End Site
					{
					    OFFSET 0.000000 0.000000 5.000000
					}
				}
			}
		}
	}
	JOINT rfemur
	{
		OFFSET -11.446000 0.000000 0.000000
		CHANNELS 3 Zrotation Xrotation Yrotation
		JOINT rtibia
		{
			OFFSET 0.000000 -42.030400 0.000000
			CHANNELS 3 Zrotation Xrotation Yrotation
			JOINT rfoot
			{
				OFFSET 0.000000 -39.930200 0.000000
				CHANNELS 3 Zrotation Xrotation Yrotation
				JOINT rtoes
				{
					OFFSET 0.000000 0.000000 11.775800
					CHANNELS 3 Zrotation Xrotation Yrotation
					End Site
					{
					    OFFSET 0.000000 0.000000 5.000000
					}
				}
			}
		}
	}
	JOINT thorax
	{
		OFFSET 0.000000 11.255600 -5.000000
		CHANNELS 3 Zrotation Xrotation Yrotation
		JOINT head
		{
			OFFSET 0.000000 43.799300 0.000000
			CHANNELS 3 Zrotation Xrotation Yrotation
			End Site
			{
			    OFFSET 0.000000 5.000000 0.000000
			}
		}
		JOINT lclavicle
		{
			OFFSET 0.000000 39.863000 0.000000
			CHANNELS 3 Zrotation Xrotation Yrotation
			JOINT lhumerus
			{
				OFFSET 17.380600 4.958300 0.000000
				CHANNELS 3 Zrotation Xrotation Yrotation
				JOINT lradius
				{
					OFFSET 0.000000 -27.561300 0.000000
					CHANNELS 3 Zrotation Xrotation Yrotation
					JOINT lhand
					{
						OFFSET 0.000000 -26.933000 0.000000
						CHANNELS 3 Zrotation Xrotation Yrotation
						End Site
						{
						    OFFSET 0.000000 -5.000000 0.000000
						}
					}
				}
			}
		}
		JOINT rclavicle
		{
			OFFSET 0.000000 39.863000 0.000000
			CHANNELS 3 Zrotation Xrotation Yrotation
			JOINT rhumerus
			{
				OFFSET -17.380600 4.958300 0.000000
				CHANNELS 3 Zrotation Xrotation Yrotation
				JOINT rradius
				{
					OFFSET 0.000000 -27.561300 0.000000
					CHANNELS 3 Zrotation Xrotation Yrotation
					JOINT rhand
					{
						OFFSET 0.000000 -26.933000 0.000000
						CHANNELS 3 Zrotation Xrotation Yrotation
						End Site
						{
						    OFFSET 0.000000 -5.000000 0.000000
						}
					}
				}
			}
		}
	}
}
MOTION
Frames:	18
Frame Time:	0.0333333
-227.098 88.767 -56.2049 0.807999 0.133982 89.2554 -3.29102 -1.21557 0.458779 1.34045 10.6548 15.204 5.3358 3.24442 -0.0101354 1.98785e-015 -5 -0 2.48674 -0.237171 -0.582093 -0.835535 13.1816 -10.428 -4.59628 1.49741 -0.184267 -0 -5 -0 -4.71365 -0.00985488 -1.54683 3.60566 9.57802 -4.97826 -7.95139e-016 -1.54058e-015 -0 14.0892 -10.5987 62.8164 2.95024 -0.0346228 -116.044 9.32057 -8.77953 -8.78563 -7.95139e-016 -1.54058e-015 -0 -12.1019 -4.61131 -29.6102 14.0505 -0.808708 69.9092 -1.74499 -3.73468 9.80126 
-227.078 88.7731 -56.1837 0.808886 0.129092 89.307 -3.25785 -1.18412 0.481142 1.32776 10.6277 15.1158 5.33202 3.25449 -0.0102525 -2.12698e-015 -5 -1.59635e-015 2.50621 -0.189302 -0.568215 -0.841223 13.114 -10.4752 -4.52779 1.55113 -0.181407 -2.78299e-015 -5 -0 -4.68717 0.684179 -1.40584 3.66015 9.05018 -5.12108 -7.95139e-016 -8.94531e-016 3.97569e-016 14.1981 -11.3559 63.2037 2.99625 0.0307771 -116.452 9.46595 -8.66062 -8.77975 -7.95139e-016 -8.94531e-016 3.97569e-016 -12.1703 -5.19189 -27.607 14.7132 -1.78661 67.1942 -1.57159 -2.29205 9.83072 
-227.058 88.7728 -56.1626 0.809688 0.114767 89.3948 -3.23173 -1.20243 0.477872 1.35421 10.6704 15.0081 5.30868 3.23213 -0.0106161 2.78299e-015 -5 -0 2.55519 -0.040734 -0.543299 -0.840521 12.8671 -10.661 -4.53523 1.61263 -0.181379 7.95139e-016 -5 -0 -4.70173 0.477734 -1.39765 3.80336 9.26414 -4.9622 -7.95139e-016 4.14963e-015 3.97569e-016 14.0381 -11.0941 62.8133 3.01362 -0.00335655 -116.327 9.4995 -8.88138 -8.75616 -7.95139e-016 4.14963e-015 3.97569e-016 -11.8742 -4.98497 -24.7 15.1466 -3.09815 63.8154 -1.37339 -0.514649 9.86356 
-227.049 88.7722 -56.1589 0.797762 0.134135 89.4508 -3.24868 -1.19567 0.470921 1.34656 10.6253 14.9939 5.19132 3.27447 -0.0110186 -1.45115e-015 -5 1.59635e-015 2.53087 -0.0616617 -0.574683 -0.818739 12.9081 -10.6624 -4.62139 1.55513 -0.181349 9.3427e-016 -5 1.59635e-015 -4.55365 0.500543 -1.35657 3.72043 9.38145 -5.07486 -3.62078e-032 2.60905e-015 7.95139e-016 13.4143 -10.9579 62.1273 3.11289 -0.0672436 -116.013 9.51023 -9.41867 -8.70838 -3.62078e-032 2.60905e-015 7.95139e-016 -11.9624 -4.9018 -25.1694 15.0233 -2.98534 64.3329 -1.46159 -0.926502 9.85404 
-227.063 88.771 -56.1582 0.67559 0.165677 89.457 -3.29311 -1.3312 0.406884 1.37116 10.6505 15.0336 5.3542 3.25772 -0.0114778 1.0734e-015 -5 3.1927e-015 2.48724 -0.248626 -0.587411 -0.798944 13.0204 -10.6592 -4.55866 1.52662 -0.181329 -3.43899e-015 -5 1.59635e-015 -4.5517 0.469768 -1.37338 3.6942 9.54221 -5.14833 -1.8966e-033 -2.73329e-016 -3.97569e-016 13.4934 -10.9594 62.1311 2.95842 -0.0771054 -115.786 9.39914 -9.16605 -8.74286 -1.8966e-033 -2.73329e-016 -3.97569e-016 -11.9577 -4.99921 -24.848 15.0679 -3.08272 64.1527 -1.34049 -0.983829 9.86007 
-227.053 88.7702 -56.1479 0.643532 0.169639 89.5206 -3.28516 -1.35507 0.38223 1.37635 10.6297 14.9538 5.47456 3.26907 -0.0120136 1.45115e-015 -5 -1.59635e-015 2.48773 -0.284385 -0.590192 -0.796819 13.0505 -10.7025 -4.53033 1.51386 -0.181316 -7.95139e-016 -5 -0 -4.5949 0.271887 -1.37147 3.55625 9.82287 -5.00107 4.65529e-033 6.70898e-016 -3.97569e-016 13.7303 -10.8111 62.2398 2.89476 -0.0517212 -116.073 9.42754 -9.19054 -8.7381 4.65529e-033 6.70898e-016 -3.97569e-016 -11.8603 -4.83052 -24.7148 15.0649 -3.14866 64.1773 -1.26346 -0.853124 9.86556 
-227.041 88.7693 -56.1355 0.595386 0.17281 89.5628 -3.26363 -1.42103 0.393434 1.37181 10.6881 14.8645 5.49995 3.24937 -0.0126443 1.84872e-015 -5 -1.59635e-015 2.52124 -0.247577 -0.553377 -0.807987 12.9219 -10.7903 -4.59311 1.51844 -0.181309 -2.38542e-015 -5 -0 -4.53054 0.230046 -1.37365 3.40996 9.87921 -4.79463 7.95139e-016 -1.39149e-015 3.97569e-016 13.4433 -10.6827 62.0455 2.97928 -0.129639 -116.053 9.51835 -9.41617 -8.70501 7.95139e-016 -1.39149e-015 3.97569e-016 -11.8721 -4.8175 -24.7783 15.0335 -3.13939 64.3386 -1.27328 -0.84279 9.86466 
-227.046 88.7679 -56.1347 0.483368 0.200371 89.5985 -3.32381 -1.49979 0.318662 1.40896 10.6009 14.9479 5.37447 3.30934 -0.0133903 7.95139e-016 -5 -0 2.47209 -0.403521 -0.583033 -0.773383 12.9995 -10.7804 -4.62347 1.47013 -0.181302 1.72941e-015 -5 1.59635e-015 -4.59355 0.0459276 -1.36519 3.56161 10.0852 -4.77707 -1.05175e-032 -3.03147e-015 -1.98785e-016 13.6747 -10.5621 62.2206 2.89862 -0.137168 -116.102 9.63315 -9.39996 -8.69151 -1.05175e-032 -3.03147e-015 -1.98785e-016 -11.8241 -4.69179 -24.5893 15.0522 -3.17618 64.2477 -1.27824 -0.989312 9.86286 
-227.042 88.7668 -56.1353 0.433315 0.245333 89.56 -3.38014 -1.45362 0.273769 1.41163 10.4058 15.0389 5.25808 3.40953 -0.0159163 1.72941e-015 -5 1.59635e-015 2.41279 -0.5094 -0.619717 -0.760636 13.1044 -10.7156 -4.64086 1.40837 -0.181296 -9.14446e-016 -5 3.1927e-015 -4.46883 0.202917 -1.27409 3.55946 10.0249 -4.46151 -0 -3.47873e-016 -0 13.3662 -10.6288 62.1528 3.03795 -0.0687756 -115.811 9.86093 -8.9196 -8.70545 -0 -3.47873e-016 -0 -11.9676 -4.92131 -24.6226 15.0725 -3.07933 64.3374 -1.44664 -1.06089 9.85331 
-227.012 88.7661 -56.1319 0.434605 0.268098 89.5676 -3.39293 -1.44745 0.263441 1.41822 10.4548 14.9873 5.45657 3.36568 -0.0172491 2.12698e-015 -5 1.59635e-015 2.39929 -0.483689 -0.621667 -0.767307 13.1052 -10.7299 -4.64534 1.37514 -0.181293 1.98785e-015 -5 -0 -4.54348 0.104948 -1.27494 3.63428 10.3533 -4.23258 9.82784e-033 -2.83268e-015 1.98785e-016 13.721 -10.5077 62.5301 2.91176 -0.101936 -116.013 9.45525 -8.77408 -8.76699 9.82784e-033 -2.83268e-015 1.98785e-016 -12.0011 -4.93299 -24.6988 15.0736 -2.9412 64.4684 -1.41974 -1.00606 9.85541 
-226.993 88.7651 -56.123 0.404283 0.256916 89.6797 -3.3901 -1.47384 0.244172 1.44207 10.4314 14.9428 5.32981 3.38382 -0.0186889 4.90996e-015 -5 1.59635e-015 2.44327 -0.464093 -0.592077 -0.783371 13.089 -10.8712 -4.7196 1.33305 -0.185954 -4.51239e-015 -5 -1.59635e-015 -4.51321 0.0253192 -1.3126 3.7659 10.7679 -4.30388 -7.95139e-016 -2.88238e-015 -0 13.6408 -10.3298 62.2167 2.82688 -0.00330173 -115.865 9.43463 -8.68585 -8.78032 -7.95139e-016 -2.88238e-015 -0 -11.9084 -4.86374 -24.5159 15.0446 -3.15122 64.3382 -1.26636 -0.765892 9.86648 
-226.955 88.7647 -56.1218 0.434605 0.303318 89.7103 -3.43673 -1.35799 0.208127 1.45275 10.3102 14.907 5.34136 3.42694 -0.0201479 1.05358e-015 -5 -1.59635e-015 2.39572 -0.425643 -0.674467 -0.754753 13.1926 -10.7102 -4.95415 1.17537 -0.199119 1.59028e-015 -5 -0 -4.59581 0.0182371 -1.30707 3.83335 11.2563 -4.12693 -2.38542e-015 -7.70291e-016 -0 13.6667 -10.2498 62.1776 2.91326 -0.0288744 -115.979 9.49625 -8.85787 -8.75756 -2.38542e-015 -7.70291e-016 -0 -11.7859 -4.85509 -24.4014 15.0285 -3.25061 64.2668 -1.16777 -0.67689 9.87241 
-226.888 88.7642 -56.1216 0.473485 0.378632 89.6015 -3.52454 -1.13211 0.169824 1.44277 10.0268 15.0866 5.27164 3.51844 -0.0215392 2.00767e-015 -5 4.78906e-015 2.27666 -0.371418 -0.753677 -0.765969 13.1324 -10.6667 -4.58139 1.25964 -0.194455 -0 -5 -0 -4.65689 0.124163 -1.24217 3.9193 11.8902 -3.84123 7.95139e-016 6.95746e-016 1.98785e-016 13.7242 -10.3212 62.3529 2.94753 -0.107867 -116.22 9.77578 -9.01412 -8.70686 7.95139e-016 6.95746e-016 1.98785e-016 -11.8421 -5.00617 -24.3634 15.0813 -3.17962 64.2393 -1.33534 -0.808803 9.87192 
-226.844 88.7637 -56.1193 0.457344 0.413877 89.643 -3.54799 -1.08126 0.149309 1.44687 9.96203 15.0259 5.26593 3.51883 -0.0227721 1.17288e-015 -5 -4.78906e-015 2.24718 -0.371856 -0.782501 -0.762015 13.1824 -10.6674 -4.63759 1.1823 -0.194306 -1.96802e-015 -5 4.78906e-015 -4.78725 0.0580897 -1.28517 3.90485 12.8494 -3.81959 -0 -1.56543e-015 -0 13.9539 -10.3443 62.4414 2.85201 -0.0358151 -116.223 9.72266 -8.79149 -8.73451 -0 -1.56543e-015 -0 -11.7408 -5.01234 -24.2406 15.0861 -3.25407 64.2396 -1.37805 -0.774004 9.86998 
-226.829 88.763 -56.1093 0.452133 0.385258 89.714 -3.5236 -1.12444 0.156846 1.45924 10.0361 14.9751 5.25898 3.47136 -0.0237598 2.78299e-015 -5 -0 2.29676 -0.370135 -0.743073 -0.768813 13.2038 -10.7976 -4.68712 1.16082 -0.194202 2.58438e-016 -5 -1.59635e-015 -4.77299 -0.00934024 -1.32307 3.58537 13.6675 -3.68219 -7.95139e-016 -4.5472e-015 -5.96354e-016 13.9342 -10.3777 62.3759 2.91863 -0.0782171 -116.109 9.3674 -8.53283 -8.7984 -7.95139e-016 -4.5472e-015 -5.96354e-016 -11.7341 -5.00588 -24.0874 15.0963 -3.45946 63.9368 -1.18332 -0.719048 9.86763 
-226.826 88.7623 -56.0948 0.421732 0.355571 89.7315 -3.47777 -1.17742 0.19625 1.44744 10.072 14.9769 5.03746 3.44696 -0.0244167 -5.16876e-016 -5 3.1927e-015 2.3582 -0.422577 -0.685551 -0.784646 13.2479 -10.8877 -4.72412 1.15324 -0.194132 -2.50472e-015 -5 3.1927e-015 -4.7372 -0.0959022 -1.31939 3.22092 14.8994 -3.48315 0 6.95746e-016 -0 14.0237 -10.5807 62.4698 3.02093 -0.00338993 -116.61 9.69479 -9.0349 -8.7189 0 6.95746e-016 -0 -11.7495 -5.0214 -24.0999 15.1157 -3.43788 63.7957 -1.26736 -0.711907 9.86575 
-226.796 88.7646 -56.0697 0.494803 0.371288 89.7956 -3.46911 -1.05319 0.215048 1.43067 9.98497 14.9161 4.84107 3.50386 -0.0246567 9.3427e-016 -5 1.59635e-015 2.37893 -0.316753 -0.696922 -0.812486 13.2433 -10.9044 -4.62091 1.17014 -0.194091 -2.10715e-015 -5 3.1927e-015 -4.8966 -0.173534 -1.41326 3.00856 16.6215 -3.01442 1.59028e-015 -2.23633e-016 5.96354e-016 14.208 -10.6391 62.4795 3.05738 -0.113022 -116.963 9.65208 -9.71821 -8.66325 1.59028e-015 -2.23633e-016 5.96354e-016 -11.4963 -4.84961 -23.9984 15.0684 -3.58849 63.5869 -1.23746 -0.727627 9.865 
-226.769 88.7661 -56.0258 0.565946 0.339473 89.7432 -3.3692 -1.04768 0.303014 1.39537 10.2046 14.775 5.34296 3.33818 -0.0187826 1.84872e-015 -5 -1.59635e-015 2.43012 -0.208645 -0.67162 -0.797193 13.1935 -10.924 -4.68445 1.18642 -0.194071 -7.95139e-016 -5 -0 -4.94979 -0.0816731 -1.4164 3.14078 18.252 -2.61395 -5.25876e-033 1.51573e-015 1.98785e-016 14.2613 -10.7776 62.293 3.04689 -0.10771 -116.755 9.08026 -8.69592 -8.81847 -5.25876e-033 1.51573e-015 1.98785e-016 -11.4068 -4.80699 -23.6709 15.0988 -3.79958 63.1566 -1.19874 -0.690433 9.87228 
